<svg width="27" height="27" viewBox="0 0 27 27" fill="none" xmlns="http://www.w3.org/2000/svg">
<path fill-rule="evenodd" clip-rule="evenodd" d="M4.68361 3.86616C7.13934 1.41043 10.3658 0.182491 13.5888 0.18248C16.8118 0.182468 20.0383 1.41042 22.494 3.86616C27.4055 8.77764 27.4055 16.7561 22.494 21.6676C17.5825 26.5791 9.59509 26.5791 4.68361 21.6676C-0.227874 16.7562 -0.227865 8.77763 4.68361 3.86616ZM21.6804 4.67085C19.4433 2.43378 16.5165 1.31797 13.5888 1.31798C10.6611 1.31799 7.7343 2.43378 5.49724 4.67085C1.02311 9.14498 1.0231 16.3888 5.49724 20.8629C9.97137 25.3371 17.2063 25.3371 21.6804 20.8629C26.1545 16.3889 26.1545 9.14498 21.6804 4.67085ZM13.5888 3.97345C13.4387 3.97357 13.2916 3.97488 13.1418 3.98239C13.1209 3.98125 13.1 3.98125 13.0792 3.98239C12.8747 4.00313 12.6969 4.13138 12.6126 4.31882C12.5284 4.50626 12.5505 4.72441 12.6707 4.89109C12.7909 5.05776 12.991 5.14763 13.1954 5.12684C15.2935 5.02171 17.4183 5.73761 19.016 7.33526C20.6137 8.93293 21.3296 11.0578 21.2244 13.1558C21.2096 13.4719 21.4538 13.7401 21.7698 13.7549C22.0858 13.7697 22.354 13.5255 22.3689 13.2095C22.4891 10.8115 21.6658 8.35779 19.8296 6.52163C18.1082 4.80024 15.841 3.97161 13.5888 3.97345ZM10.5847 9.75826C11.4129 8.93003 12.499 8.51547 13.5888 8.51547C14.6787 8.51546 15.7648 8.93003 16.593 9.75826C18.2494 11.4147 18.2494 14.1191 16.593 15.7755C14.9365 17.432 12.2411 17.432 10.5847 15.7755C8.92819 14.1191 8.9282 11.4147 10.5847 9.75826ZM13.5888 9.65097C14.3834 9.65097 15.1787 9.96234 15.7883 10.5719C17.0074 11.791 17.0074 13.7518 15.7883 14.9708C14.5692 16.19 12.6084 16.19 11.3893 14.9708C10.1702 13.7518 10.1702 11.791 11.3893 10.5719C11.9989 9.96234 12.7942 9.65097 13.5888 9.65097ZM4.79984 12.3154C4.81302 12.0232 5.04438 11.788 5.3363 11.77C5.50057 11.7594 5.66146 11.82 5.77786 11.9364C5.89426 12.0528 5.9549 12.2137 5.94428 12.378C5.83905 14.4759 6.55512 16.601 8.15271 18.1985C9.75047 19.7962 11.8753 20.5121 13.9733 20.407C14.1777 20.3958 14.3726 20.4945 14.4845 20.666C14.5964 20.8374 14.6084 21.0556 14.5158 21.2382C14.4233 21.4209 14.2403 21.5402 14.0359 21.5514C11.6379 21.6716 9.18427 20.8394 7.34802 19.0032C5.51192 17.1671 4.67956 14.7134 4.79984 12.3154Z" fill="white"/>
<path d="M4.68361 3.86616L4.57754 3.76009L4.68361 3.86616ZM22.494 3.86616L22.388 3.97223L22.494 3.86616ZM22.494 21.6676L22.6001 21.7737L22.494 21.6676ZM4.68361 21.6676L4.78967 21.5616L4.68361 21.6676ZM13.5888 1.31798V1.46798V1.31798ZM21.6804 4.67085L21.5743 4.77691L21.6804 4.67085ZM5.49724 4.67085L5.6033 4.77691V4.77691L5.49724 4.67085ZM5.49724 20.8629L5.6033 20.7569H5.6033L5.49724 20.8629ZM21.6804 20.8629L21.5743 20.7569L21.6804 20.8629ZM13.1418 3.98239L13.1336 4.13217L13.1414 4.1326L13.1493 4.13221L13.1418 3.98239ZM13.5888 3.97345L13.5887 3.82345L13.5888 3.97345ZM13.0792 3.98239L13.071 3.83246L13.064 3.83316L13.0792 3.98239ZM12.6126 4.31882L12.7494 4.38031V4.38031L12.6126 4.31882ZM12.6707 4.89109L12.5491 4.97884V4.97884L12.6707 4.89109ZM13.1954 5.12684L13.1879 4.97683L13.1802 4.97761L13.1954 5.12684ZM19.016 7.33526L19.1221 7.22919V7.22919L19.016 7.33526ZM21.2244 13.1558L21.0746 13.1483L21.0746 13.1488L21.2244 13.1558ZM21.7698 13.7549L21.7768 13.605L21.7698 13.7549ZM22.3689 13.2095L22.219 13.202L22.219 13.2025L22.3689 13.2095ZM19.8296 6.52163L19.9357 6.41556V6.41556L19.8296 6.52163ZM13.5888 8.51547V8.36547V8.51547ZM10.5847 9.75826L10.4786 9.65219L10.5847 9.75826ZM16.593 15.7755L16.4869 15.6695L16.4869 15.6695L16.593 15.7755ZM10.5847 15.7755L10.6907 15.6695L10.6907 15.6695L10.5847 15.7755ZM15.7883 10.5719L15.6822 10.678L15.7883 10.5719ZM13.5888 9.65097L13.5888 9.80097L13.5888 9.65097ZM15.7883 14.9708L15.6822 14.8648L15.6822 14.8648L15.7883 14.9708ZM11.3893 14.9708L11.4954 14.8648L11.4954 14.8648L11.3893 14.9708ZM11.3893 10.5719L11.2833 10.4658L11.3893 10.5719ZM5.3363 11.77L5.34554 11.9197L5.34597 11.9197L5.3363 11.77ZM4.79984 12.3154L4.94965 12.3229L4.94969 12.3221L4.79984 12.3154ZM5.77786 11.9364L5.88392 11.8303L5.88392 11.8303L5.77786 11.9364ZM5.94428 12.378L5.79458 12.3683L5.79447 12.3705L5.94428 12.378ZM8.15271 18.1985L8.04664 18.3046L8.04664 18.3046L8.15271 18.1985ZM13.9733 20.407L13.9808 20.5568L13.9815 20.5567L13.9733 20.407ZM14.4845 20.666L14.3589 20.7479H14.3589L14.4845 20.666ZM14.0359 21.5514L14.0434 21.7012L14.044 21.7012L14.0359 21.5514ZM7.34802 19.0032L7.24195 19.1093L7.24195 19.1093L7.34802 19.0032ZM13.5888 0.0324799C10.3278 0.0324914 7.06262 1.27501 4.57754 3.76009L4.78967 3.97223C7.21606 1.54584 10.4039 0.332491 13.5888 0.33248L13.5888 0.0324799ZM22.6001 3.76009C20.115 1.27501 16.8498 0.0324683 13.5888 0.0324799L13.5888 0.33248C16.7738 0.332469 19.9616 1.54583 22.388 3.97223L22.6001 3.76009ZM22.6001 21.7737C27.5701 16.8036 27.5702 8.73015 22.6001 3.76009L22.388 3.97223C27.2409 8.82513 27.2409 16.7087 22.388 21.5616L22.6001 21.7737ZM4.57754 21.7737C9.5476 26.7437 17.63 26.7437 22.6001 21.7737L22.388 21.5616C17.5351 26.4144 9.64258 26.4145 4.78967 21.5616L4.57754 21.7737ZM4.57754 3.76009C-0.392509 8.73014 -0.392518 16.8037 4.57754 21.7737L4.78967 21.5616C-0.0632287 16.7087 -0.0632205 8.82512 4.78967 3.97223L4.57754 3.76009ZM13.5888 1.46798C16.4783 1.46797 19.3665 2.5691 21.5743 4.77691L21.7865 4.56478C19.5201 2.29846 16.5547 1.16797 13.5888 1.16798V1.46798ZM5.6033 4.77691C7.81111 2.5691 10.6993 1.46799 13.5888 1.46798V1.16798C10.623 1.16799 7.65749 2.29846 5.39117 4.56478L5.6033 4.77691ZM5.6033 20.7569C1.18775 16.3413 1.18775 9.19246 5.6033 4.77691L5.39117 4.56478C0.858462 9.09749 0.85846 16.4363 5.39117 20.969L5.6033 20.7569ZM21.5743 20.7569C17.1588 25.1725 10.0189 25.1725 5.6033 20.7569L5.39117 20.969C9.92388 25.5018 17.2538 25.5017 21.7865 20.969L21.5743 20.7569ZM21.5743 4.77691C25.9899 9.19247 25.9899 16.3414 21.5743 20.7569L21.7865 20.969C26.3192 16.4363 26.3192 9.09749 21.7865 4.56478L21.5743 4.77691ZM13.1493 4.13221C13.2953 4.12489 13.4393 4.12357 13.5889 4.12345L13.5887 3.82345C13.438 3.82358 13.288 3.82488 13.1343 3.83258L13.1493 4.13221ZM13.0874 4.13217C13.1028 4.13133 13.1182 4.13133 13.1336 4.13217L13.15 3.83262C13.1237 3.83118 13.0973 3.83118 13.071 3.83262L13.0874 4.13217ZM12.7494 4.38031C12.8117 4.24176 12.9432 4.14695 13.0943 4.13163L13.064 3.83316C12.8063 3.8593 12.582 4.02099 12.4758 4.25732L12.7494 4.38031ZM12.7924 4.80334C12.7035 4.68013 12.6871 4.51887 12.7494 4.38031L12.4758 4.25732C12.3696 4.49365 12.3975 4.76869 12.5491 4.97884L12.7924 4.80334ZM13.1802 4.97761C13.0291 4.99298 12.8813 4.92655 12.7924 4.80334L12.5491 4.97884C12.7006 5.18898 12.9528 5.30229 13.2106 5.27607L13.1802 4.97761ZM19.1221 7.22919C17.4921 5.59929 15.3249 4.86994 13.1879 4.97703L13.2029 5.27665C15.262 5.17348 17.3445 5.87594 18.9099 7.44132L19.1221 7.22919ZM21.3742 13.1633C21.4814 11.0263 20.752 8.85911 19.1221 7.22919L18.9099 7.44132C20.4753 9.00674 21.1779 11.0893 21.0746 13.1483L21.3742 13.1633ZM21.7768 13.605C21.5436 13.5941 21.3633 13.3961 21.3742 13.1629L21.0746 13.1488C21.0559 13.5476 21.364 13.886 21.7628 13.9047L21.7768 13.605ZM22.219 13.2025C22.2081 13.4357 22.0101 13.616 21.7768 13.605L21.7628 13.9047C22.1616 13.9234 22.5 13.6153 22.5187 13.2165L22.219 13.2025ZM19.7235 6.6277C21.5274 8.43158 22.3374 10.8429 22.219 13.202L22.5187 13.217C22.6409 10.78 21.8041 8.28401 19.9357 6.41556L19.7235 6.6277ZM13.5889 4.12345C15.8045 4.12164 18.0325 4.93664 19.7235 6.6277L19.9357 6.41556C18.1839 4.66384 15.8775 3.82158 13.5887 3.82345L13.5889 4.12345ZM13.5888 8.36547C12.4609 8.36547 11.3361 8.79467 10.4786 9.65219L10.6907 9.86433C11.4896 9.0654 12.5371 8.66547 13.5888 8.66547V8.36547ZM16.699 9.65219C15.8415 8.79467 14.7168 8.36546 13.5888 8.36547V8.66547C14.6406 8.66546 15.688 9.0654 16.4869 9.86433L16.699 9.65219ZM16.699 15.8816C18.4141 14.1666 18.4141 11.3672 16.699 9.65219L16.4869 9.86433C18.0848 11.4622 18.0848 14.0716 16.4869 15.6695L16.699 15.8816ZM10.4786 15.8816C12.1936 17.5966 14.984 17.5966 16.699 15.8816L16.4869 15.6695C14.889 17.2674 12.2886 17.2674 10.6907 15.6695L10.4786 15.8816ZM10.4786 9.65219C8.76355 11.3672 8.76354 14.1666 10.4786 15.8816L10.6907 15.6695C9.09283 14.0716 9.09284 11.4622 10.6907 9.86433L10.4786 9.65219ZM15.8944 10.4658C15.2563 9.82778 14.4227 9.50097 13.5888 9.50097L13.5888 9.80097C14.3441 9.80097 15.1012 10.0969 15.6822 10.678L15.8944 10.4658ZM15.8944 15.0769C17.172 13.7992 17.172 11.7435 15.8944 10.4658L15.6822 10.678C16.8428 11.8385 16.8428 13.7043 15.6822 14.8648L15.8944 15.0769ZM11.2833 15.0769C12.561 16.3546 14.6167 16.3546 15.8944 15.0769L15.6822 14.8648C14.5217 16.0253 12.6559 16.0253 11.4954 14.8648L11.2833 15.0769ZM11.2833 10.4658C10.0056 11.7435 10.0056 13.7992 11.2833 15.0769L11.4954 14.8648C10.3349 13.7043 10.3349 11.8385 11.4954 10.678L11.2833 10.4658ZM13.5888 9.50097C12.755 9.50097 11.9213 9.82778 11.2833 10.4658L11.4954 10.678C12.0765 10.0969 12.8335 9.80097 13.5888 9.80097L13.5888 9.50097ZM5.32706 11.6203C4.95863 11.643 4.66663 11.9399 4.64999 12.3086L4.94969 12.3221C4.95942 12.1065 5.13014 11.933 5.34554 11.9197L5.32706 11.6203ZM5.88392 11.8303C5.73701 11.6834 5.53396 11.6069 5.32663 11.6203L5.34597 11.9197C5.46719 11.9118 5.5859 11.9566 5.67179 12.0425L5.88392 11.8303ZM6.09397 12.3876C6.10737 12.1803 6.03083 11.9772 5.88392 11.8303L5.67179 12.0425C5.75768 12.1284 5.80243 12.2471 5.7946 12.3683L6.09397 12.3876ZM8.25877 18.0925C6.69344 16.5271 5.99082 14.4444 6.0941 12.3855L5.79447 12.3705C5.68729 14.5074 6.4168 16.6748 8.04664 18.3046L8.25877 18.0925ZM13.9658 20.2571C11.9068 20.3604 9.82428 19.6579 8.25877 18.0925L8.04664 18.3046C9.67666 19.9346 11.8438 20.6639 13.9808 20.5568L13.9658 20.2571ZM14.6101 20.584C14.4689 20.3676 14.223 20.243 13.9651 20.2572L13.9815 20.5567C14.1324 20.5485 14.2763 20.6214 14.3589 20.7479L14.6101 20.584ZM14.6496 21.306C14.7664 21.0756 14.7513 20.8003 14.6101 20.584L14.3589 20.7479C14.4415 20.8745 14.4503 21.0356 14.382 21.1704L14.6496 21.306ZM14.044 21.7012C14.302 21.6871 14.5329 21.5365 14.6496 21.306L14.382 21.1704C14.3137 21.3052 14.1786 21.3934 14.0277 21.4016L14.044 21.7012ZM7.24195 19.1093C9.11023 20.9775 11.6061 21.8234 14.0434 21.7012L14.0284 21.4016C11.6698 21.5198 9.2583 20.7013 7.45408 18.8972L7.24195 19.1093ZM4.65003 12.3079C4.52778 14.7452 5.37383 17.2412 7.24195 19.1093L7.45408 18.8972C5.65002 17.0931 4.83135 14.6815 4.94965 12.3229L4.65003 12.3079Z" fill="white"/>
</svg>
