<svg width="380" height="373" viewBox="0 0 380 373" fill="none" xmlns="http://www.w3.org/2000/svg">
<g filter="url(#filter0_i_0_421)">
<circle cx="188.963" cy="171.963" r="102.81" fill="#F6F5FA"/>
</g>
<path fill-rule="evenodd" clip-rule="evenodd" d="M182.187 195.609L59.4216 269.876L188.963 287.111L318.504 269.876L182.187 195.609Z" fill="white"/>
<g opacity="0.35412" filter="url(#filter1_f_0_421)">
<ellipse cx="188.962" cy="199.825" rx="93.5567" ry="109.97" fill="#E5E5E5"/>
</g>
<g opacity="0.581055" filter="url(#filter2_f_0_421)">
<ellipse cx="190.054" cy="194.026" rx="79.75" ry="83.7086" fill="#6F5CEA" fill-opacity="0.316625"/>
</g>
<circle cx="189.407" cy="172.407" r="86.8052" fill="white"/>
<g filter="url(#filter3_i_0_421)">
<circle cx="189.477" cy="172.477" r="75.5657" stroke="#ECEBF2" stroke-width="0.915316"/>
</g>
<path d="M173.717 194.172C173.783 194.172 173.84 194.199 173.89 194.252L174.365 194.764C174.003 195.184 173.563 195.511 173.044 195.745C172.53 195.98 171.907 196.097 171.175 196.097C170.542 196.097 169.966 195.988 169.448 195.77C168.93 195.548 168.488 195.239 168.122 194.845C167.756 194.446 167.472 193.969 167.271 193.413C167.069 192.858 166.968 192.248 166.968 191.581C166.968 190.915 167.073 190.304 167.283 189.749C167.493 189.194 167.787 188.717 168.165 188.318C168.548 187.919 169.004 187.611 169.534 187.393C170.065 187.171 170.651 187.06 171.293 187.06C171.922 187.06 172.477 187.16 172.958 187.362C173.439 187.563 173.863 187.837 174.229 188.182L173.834 188.731C173.809 188.773 173.776 188.807 173.735 188.836C173.698 188.861 173.647 188.873 173.581 188.873C173.507 188.873 173.417 188.834 173.31 188.756C173.203 188.674 173.063 188.583 172.89 188.485C172.717 188.386 172.502 188.298 172.243 188.219C171.983 188.137 171.665 188.096 171.286 188.096C170.83 188.096 170.412 188.176 170.034 188.337C169.656 188.493 169.329 188.721 169.053 189.021C168.782 189.322 168.57 189.688 168.418 190.119C168.266 190.551 168.19 191.038 168.19 191.581C168.19 192.132 168.268 192.624 168.424 193.056C168.585 193.487 168.8 193.853 169.072 194.154C169.347 194.45 169.67 194.676 170.04 194.832C170.415 194.988 170.818 195.067 171.249 195.067C171.513 195.067 171.749 195.052 171.959 195.023C172.173 194.991 172.368 194.941 172.545 194.875C172.726 194.81 172.892 194.727 173.044 194.629C173.201 194.526 173.355 194.404 173.507 194.265C173.577 194.203 173.647 194.172 173.717 194.172ZM179.761 192.192C179.761 191.937 179.724 191.705 179.65 191.495C179.58 191.281 179.475 191.098 179.335 190.946C179.199 190.79 179.033 190.67 178.835 190.588C178.638 190.502 178.414 190.459 178.163 190.459C177.636 190.459 177.219 190.613 176.911 190.921C176.606 191.226 176.417 191.649 176.343 192.192H179.761ZM180.649 195.122C180.513 195.287 180.351 195.431 180.162 195.554C179.972 195.673 179.769 195.772 179.551 195.85C179.337 195.928 179.115 195.986 178.885 196.023C178.654 196.064 178.426 196.084 178.2 196.084C177.768 196.084 177.369 196.012 177.003 195.869C176.641 195.72 176.327 195.507 176.059 195.227C175.796 194.943 175.591 194.594 175.443 194.178C175.294 193.763 175.22 193.286 175.22 192.747C175.22 192.311 175.286 191.904 175.418 191.526C175.554 191.147 175.747 190.821 175.998 190.545C176.249 190.265 176.555 190.047 176.917 189.891C177.279 189.731 177.686 189.651 178.138 189.651C178.512 189.651 178.858 189.714 179.175 189.842C179.495 189.965 179.771 190.146 180.001 190.385C180.236 190.619 180.419 190.911 180.55 191.261C180.682 191.606 180.748 192.001 180.748 192.445C180.748 192.618 180.729 192.733 180.692 192.79C180.655 192.848 180.585 192.877 180.482 192.877H176.306C176.318 193.272 176.372 193.615 176.467 193.907C176.565 194.199 176.701 194.444 176.874 194.641C177.046 194.834 177.252 194.98 177.49 195.079C177.729 195.174 177.996 195.221 178.292 195.221C178.568 195.221 178.804 195.19 179.002 195.128C179.203 195.062 179.376 194.993 179.52 194.919C179.664 194.845 179.783 194.777 179.878 194.715C179.976 194.649 180.061 194.616 180.131 194.616C180.221 194.616 180.291 194.651 180.34 194.721L180.649 195.122ZM183.437 186.912V195.998H182.339V186.912H183.437ZM189.772 190.86C189.739 190.905 189.706 190.94 189.673 190.964C189.641 190.989 189.595 191.001 189.538 191.001C189.476 191.001 189.408 190.977 189.334 190.927C189.26 190.874 189.168 190.816 189.057 190.755C188.95 190.693 188.816 190.638 188.656 190.588C188.499 190.535 188.306 190.508 188.076 190.508C187.767 190.508 187.496 190.563 187.262 190.675C187.027 190.781 186.83 190.938 186.669 191.143C186.513 191.349 186.394 191.598 186.312 191.89C186.233 192.182 186.194 192.509 186.194 192.871C186.194 193.249 186.238 193.586 186.324 193.882C186.41 194.174 186.532 194.421 186.688 194.622C186.848 194.82 187.039 194.972 187.262 195.079C187.488 195.182 187.741 195.233 188.02 195.233C188.288 195.233 188.508 195.202 188.68 195.141C188.853 195.075 188.995 195.003 189.106 194.925C189.221 194.847 189.316 194.777 189.39 194.715C189.468 194.649 189.544 194.616 189.618 194.616C189.708 194.616 189.778 194.651 189.828 194.721L190.136 195.122C190 195.291 189.846 195.435 189.673 195.554C189.501 195.673 189.314 195.774 189.112 195.856C188.915 195.934 188.707 195.992 188.489 196.029C188.271 196.066 188.049 196.084 187.823 196.084C187.432 196.084 187.068 196.012 186.731 195.869C186.398 195.725 186.108 195.517 185.861 195.245C185.615 194.97 185.421 194.633 185.281 194.234C185.142 193.835 185.072 193.38 185.072 192.871C185.072 192.406 185.135 191.976 185.263 191.581C185.395 191.187 185.584 190.847 185.83 190.563C186.081 190.276 186.388 190.051 186.75 189.891C187.116 189.731 187.535 189.651 188.008 189.651C188.448 189.651 188.835 189.722 189.168 189.866C189.505 190.006 189.803 190.206 190.062 190.465L189.772 190.86ZM192.68 189.749V195.998H191.582V189.749H192.68ZM192.915 187.788C192.915 187.895 192.892 187.995 192.847 188.09C192.806 188.18 192.748 188.263 192.674 188.337C192.604 188.407 192.52 188.462 192.421 188.503C192.327 188.544 192.226 188.565 192.119 188.565C192.012 188.565 191.911 188.544 191.817 188.503C191.726 188.462 191.646 188.407 191.576 188.337C191.506 188.263 191.451 188.18 191.409 188.09C191.368 187.995 191.348 187.895 191.348 187.788C191.348 187.681 191.368 187.58 191.409 187.485C191.451 187.387 191.506 187.302 191.576 187.232C191.646 187.158 191.726 187.101 191.817 187.06C191.911 187.019 192.012 186.998 192.119 186.998C192.226 186.998 192.327 187.019 192.421 187.06C192.52 187.101 192.604 187.158 192.674 187.232C192.748 187.302 192.806 187.387 192.847 187.485C192.892 187.58 192.915 187.681 192.915 187.788ZM197.324 189.651C197.781 189.651 198.192 189.727 198.558 189.879C198.924 190.031 199.236 190.247 199.495 190.526C199.755 190.806 199.952 191.145 200.088 191.544C200.227 191.939 200.297 192.381 200.297 192.871C200.297 193.364 200.227 193.808 200.088 194.203C199.952 194.598 199.755 194.935 199.495 195.215C199.236 195.494 198.924 195.71 198.558 195.862C198.192 196.01 197.781 196.084 197.324 196.084C196.863 196.084 196.448 196.01 196.078 195.862C195.712 195.71 195.399 195.494 195.14 195.215C194.881 194.935 194.682 194.598 194.542 194.203C194.406 193.808 194.338 193.364 194.338 192.871C194.338 192.381 194.406 191.939 194.542 191.544C194.682 191.145 194.881 190.806 195.14 190.526C195.399 190.247 195.712 190.031 196.078 189.879C196.448 189.727 196.863 189.651 197.324 189.651ZM197.324 195.227C197.941 195.227 198.402 195.021 198.706 194.61C199.01 194.195 199.162 193.617 199.162 192.877C199.162 192.132 199.01 191.553 198.706 191.137C198.402 190.722 197.941 190.514 197.324 190.514C197.012 190.514 196.738 190.568 196.504 190.675C196.273 190.781 196.08 190.936 195.924 191.137C195.772 191.339 195.656 191.587 195.578 191.884C195.504 192.176 195.467 192.507 195.467 192.877C195.467 193.617 195.619 194.195 195.924 194.61C196.232 195.021 196.699 195.227 197.324 195.227ZM207.034 189.749V195.998H206.38C206.224 195.998 206.125 195.922 206.084 195.77L205.998 195.097C205.726 195.398 205.422 195.64 205.085 195.825C204.748 196.006 204.361 196.097 203.925 196.097C203.584 196.097 203.282 196.041 203.018 195.93C202.759 195.815 202.541 195.655 202.365 195.449C202.188 195.243 202.054 194.995 201.964 194.703C201.877 194.411 201.834 194.088 201.834 193.734V189.749H202.932V193.734C202.932 194.207 203.039 194.573 203.253 194.832C203.471 195.091 203.802 195.221 204.246 195.221C204.571 195.221 204.873 195.145 205.153 194.993C205.437 194.836 205.698 194.622 205.936 194.351V189.749H207.034ZM212.62 190.779C212.571 190.87 212.495 190.915 212.392 190.915C212.33 190.915 212.261 190.892 212.182 190.847C212.104 190.802 212.008 190.753 211.892 190.699C211.781 190.642 211.648 190.59 211.492 190.545C211.335 190.496 211.15 190.471 210.936 190.471C210.751 190.471 210.585 190.496 210.437 190.545C210.289 190.59 210.161 190.654 210.054 190.736C209.951 190.818 209.871 190.915 209.814 191.026C209.76 191.133 209.733 191.25 209.733 191.378C209.733 191.538 209.779 191.672 209.869 191.779C209.964 191.886 210.087 191.978 210.239 192.056C210.391 192.134 210.564 192.204 210.757 192.266C210.951 192.324 211.148 192.387 211.35 192.457C211.555 192.523 211.755 192.597 211.948 192.679C212.141 192.762 212.314 192.864 212.466 192.988C212.618 193.111 212.74 193.263 212.83 193.444C212.925 193.621 212.972 193.835 212.972 194.086C212.972 194.374 212.921 194.641 212.818 194.888C212.715 195.13 212.563 195.342 212.361 195.523C212.16 195.7 211.913 195.84 211.621 195.943C211.329 196.045 210.992 196.097 210.609 196.097C210.174 196.097 209.779 196.027 209.425 195.887C209.071 195.743 208.771 195.56 208.524 195.338L208.784 194.919C208.816 194.865 208.855 194.824 208.901 194.795C208.946 194.766 209.004 194.752 209.073 194.752C209.147 194.752 209.226 194.781 209.308 194.838C209.39 194.896 209.489 194.96 209.604 195.03C209.723 195.099 209.867 195.163 210.036 195.221C210.204 195.278 210.414 195.307 210.665 195.307C210.879 195.307 211.066 195.28 211.226 195.227C211.387 195.169 211.52 195.093 211.627 194.999C211.734 194.904 211.812 194.795 211.862 194.672C211.915 194.548 211.942 194.417 211.942 194.277C211.942 194.104 211.895 193.962 211.8 193.851C211.709 193.736 211.588 193.64 211.436 193.561C211.284 193.479 211.109 193.409 210.912 193.352C210.718 193.29 210.519 193.226 210.313 193.16C210.112 193.095 209.912 193.021 209.715 192.938C209.522 192.852 209.349 192.745 209.197 192.618C209.045 192.49 208.921 192.334 208.827 192.149C208.736 191.96 208.691 191.731 208.691 191.464C208.691 191.226 208.74 190.997 208.839 190.779C208.938 190.557 209.082 190.364 209.271 190.2C209.46 190.031 209.692 189.897 209.968 189.799C210.243 189.7 210.558 189.651 210.912 189.651C211.323 189.651 211.691 189.716 212.016 189.848C212.345 189.975 212.629 190.152 212.867 190.378L212.62 190.779Z" fill="#9897AD"/>
<path d="M168.791 172.774C169.149 172.774 169.432 172.879 169.642 173.089C169.852 173.299 169.957 173.57 169.957 173.903V175.902H152.265V174.773C152.265 174.539 152.314 174.298 152.413 174.051C152.512 173.805 152.666 173.576 152.876 173.367L161.37 164.835C162.073 164.12 162.715 163.435 163.295 162.781C163.874 162.115 164.368 161.449 164.775 160.783C165.182 160.116 165.497 159.444 165.719 158.766C165.941 158.075 166.052 157.341 166.052 156.563C166.052 155.786 165.929 155.108 165.682 154.528C165.435 153.935 165.096 153.448 164.664 153.066C164.245 152.683 163.745 152.4 163.165 152.214C162.585 152.017 161.962 151.918 161.296 151.918C160.617 151.918 159.994 152.017 159.427 152.214C158.859 152.412 158.354 152.689 157.909 153.047C157.478 153.393 157.114 153.806 156.818 154.287C156.521 154.768 156.312 155.299 156.188 155.879C156.04 156.31 155.837 156.6 155.578 156.748C155.331 156.884 154.979 156.921 154.523 156.859L152.802 156.563C152.975 155.354 153.308 154.287 153.801 153.362C154.307 152.424 154.936 151.641 155.689 151.012C156.454 150.382 157.323 149.907 158.298 149.587C159.273 149.254 160.328 149.087 161.463 149.087C162.585 149.087 163.634 149.254 164.609 149.587C165.583 149.92 166.428 150.407 167.144 151.049C167.859 151.678 168.421 152.449 168.828 153.362C169.235 154.275 169.439 155.311 169.439 156.471C169.439 157.458 169.291 158.377 168.994 159.228C168.698 160.067 168.297 160.869 167.792 161.634C167.286 162.399 166.7 163.145 166.034 163.873C165.38 164.601 164.683 165.335 163.942 166.075L156.947 173.219C157.441 173.083 157.94 172.978 158.446 172.904C158.952 172.818 159.439 172.774 159.908 172.774H168.791ZM178.695 159.395C180.076 159.099 181.347 158.951 182.507 158.951C183.889 158.951 185.11 159.154 186.171 159.561C187.232 159.968 188.114 160.53 188.817 161.245C189.533 161.961 190.07 162.806 190.427 163.781C190.798 164.755 190.983 165.816 190.983 166.964C190.983 168.37 190.736 169.641 190.242 170.776C189.761 171.911 189.089 172.886 188.225 173.7C187.374 174.502 186.368 175.119 185.209 175.55C184.049 175.982 182.797 176.198 181.452 176.198C180.675 176.198 179.928 176.118 179.213 175.957C178.497 175.809 177.825 175.606 177.196 175.347C176.579 175.088 176.005 174.792 175.475 174.459C174.944 174.125 174.475 173.774 174.068 173.404L175.086 171.997C175.308 171.676 175.598 171.516 175.956 171.516C176.203 171.516 176.48 171.615 176.789 171.812C177.097 171.997 177.473 172.207 177.917 172.441C178.362 172.676 178.88 172.892 179.472 173.089C180.076 173.274 180.792 173.367 181.619 173.367C182.544 173.367 183.377 173.219 184.117 172.923C184.857 172.626 185.493 172.207 186.023 171.664C186.554 171.109 186.961 170.449 187.244 169.684C187.528 168.919 187.67 168.062 187.67 167.112C187.67 166.285 187.547 165.539 187.3 164.872C187.066 164.206 186.702 163.639 186.208 163.17C185.727 162.701 185.122 162.337 184.394 162.078C183.667 161.819 182.815 161.689 181.841 161.689C181.174 161.689 180.477 161.745 179.75 161.856C179.034 161.967 178.3 162.146 177.547 162.393L175.475 161.782L177.603 149.383H190.168V150.827C190.168 151.295 190.02 151.684 189.724 151.992C189.44 152.288 188.947 152.437 188.244 152.437H179.916L178.695 159.395Z" fill="#242424"/>
<path d="M225.588 170.424C225.786 170.424 225.958 170.504 226.106 170.665L227.531 172.201C226.446 173.459 225.126 174.44 223.571 175.143C222.029 175.846 220.16 176.198 217.964 176.198C216.064 176.198 214.337 175.871 212.782 175.217C211.228 174.551 209.901 173.626 208.803 172.441C207.705 171.245 206.854 169.814 206.25 168.148C205.645 166.482 205.343 164.65 205.343 162.652C205.343 160.653 205.657 158.821 206.287 157.156C206.916 155.49 207.798 154.059 208.933 152.862C210.08 151.665 211.45 150.74 213.041 150.086C214.633 149.42 216.391 149.087 218.315 149.087C220.203 149.087 221.869 149.389 223.312 149.994C224.755 150.598 226.026 151.419 227.124 152.455L225.94 154.102C225.866 154.225 225.767 154.33 225.644 154.417C225.533 154.491 225.378 154.528 225.181 154.528C224.959 154.528 224.688 154.41 224.367 154.176C224.046 153.929 223.627 153.658 223.108 153.362C222.59 153.066 221.943 152.8 221.165 152.566C220.388 152.319 219.432 152.196 218.297 152.196C216.927 152.196 215.675 152.437 214.54 152.918C213.405 153.386 212.424 154.071 211.598 154.972C210.784 155.872 210.148 156.97 209.692 158.266C209.235 159.561 209.007 161.023 209.007 162.652C209.007 164.305 209.241 165.779 209.71 167.075C210.191 168.37 210.839 169.468 211.653 170.369C212.48 171.257 213.448 171.936 214.559 172.404C215.681 172.873 216.89 173.108 218.186 173.108C218.975 173.108 219.685 173.064 220.314 172.978C220.956 172.879 221.542 172.731 222.072 172.534C222.615 172.337 223.115 172.09 223.571 171.794C224.04 171.485 224.503 171.121 224.959 170.702C225.169 170.517 225.378 170.424 225.588 170.424Z" fill="#242424"/>
<circle cx="197.454" cy="151.099" r="2.36464" stroke="#242424" stroke-width="1.43935"/>
<circle opacity="0.804129" cx="188.524" cy="171.524" r="132.567" stroke="#DADADA" stroke-width="11.5771" stroke-dasharray="1.02 20.73"/>
<path d="M315.214 170.738H333.194" stroke="#EAEAEA" stroke-width="1.43"/>
<path d="M44.0835 172.598H62.063" stroke="#EAEAEA" stroke-width="1.43"/>
<path d="M187.601 26.9752V44.9547" stroke="#EAEAEA" stroke-width="1.43"/>
<path d="M188.892 297.718V315.697" stroke="#EAEAEA" stroke-width="1.43"/>
<path d="M194.515 67.8977C194.515 67.8977 288.132 82.4588 292.946 174.307" stroke="url(#paint0_linear_0_421)" stroke-width="4.11242"/>
<g filter="url(#filter4_d_0_421)">
<circle cx="189.43" cy="68.0169" r="6.16863" fill="#6F5CEA"/>
<circle cx="189.43" cy="68.0169" r="4.62647" stroke="white" stroke-width="3.08431"/>
</g>
<g filter="url(#filter5_d_0_421)">
<path fill-rule="evenodd" clip-rule="evenodd" d="M308.797 169.892L296.42 162.795C293.803 161.304 290.476 161.188 287.674 162.795C283.462 165.21 282.005 170.582 284.42 174.794C286.835 179.006 292.208 180.463 296.42 178.047L308.797 170.95C309.206 170.716 309.206 170.126 308.797 169.892Z" fill="white"/>
</g>
<g filter="url(#filter6_d_0_421)">
<circle cx="292.562" cy="170.433" r="3.44913" transform="rotate(90 292.562 170.433)" fill="#F2946D"/>
</g>
<path d="M180.411 14.7059V16.0934H174.411V14.7059H176.609V8.38344C176.609 8.13344 176.616 7.87594 176.631 7.61094L175.071 8.91594C174.981 8.98594 174.891 9.03094 174.801 9.05094C174.716 9.06594 174.634 9.06594 174.554 9.05094C174.479 9.03594 174.411 9.01094 174.351 8.97594C174.291 8.93594 174.246 8.89344 174.216 8.84844L173.631 8.04594L176.939 5.23344H178.461V14.7059H180.411ZM184.395 9.18594C184.635 9.13594 184.865 9.10094 185.085 9.08094C185.305 9.05594 185.518 9.04344 185.723 9.04344C186.293 9.04344 186.795 9.12844 187.23 9.29844C187.665 9.46844 188.03 9.70344 188.325 10.0034C188.62 10.3034 188.843 10.6559 188.993 11.0609C189.143 11.4609 189.218 11.8934 189.218 12.3584C189.218 12.9334 189.115 13.4584 188.91 13.9334C188.71 14.4084 188.43 14.8159 188.07 15.1559C187.71 15.4909 187.283 15.7509 186.788 15.9359C186.298 16.1209 185.763 16.2134 185.183 16.2134C184.843 16.2134 184.52 16.1784 184.215 16.1084C183.91 16.0384 183.623 15.9459 183.353 15.8309C183.088 15.7109 182.84 15.5759 182.61 15.4259C182.385 15.2709 182.183 15.1084 182.003 14.9384L182.573 14.1509C182.693 13.9809 182.85 13.8959 183.045 13.8959C183.17 13.8959 183.298 13.9359 183.428 14.0159C183.558 14.0959 183.705 14.1834 183.87 14.2784C184.04 14.3734 184.238 14.4609 184.463 14.5409C184.693 14.6209 184.968 14.6609 185.288 14.6609C185.628 14.6609 185.928 14.6059 186.188 14.4959C186.448 14.3859 186.663 14.2334 186.833 14.0384C187.008 13.8384 187.138 13.6034 187.223 13.3334C187.313 13.0584 187.358 12.7609 187.358 12.4409C187.358 11.8509 187.185 11.3909 186.84 11.0609C186.5 10.7259 185.995 10.5584 185.325 10.5584C184.81 10.5584 184.283 10.6534 183.743 10.8434L182.588 10.5134L183.488 5.24844H188.843V6.03594C188.843 6.30094 188.76 6.51594 188.595 6.68094C188.43 6.84594 188.15 6.92844 187.755 6.92844H184.778L184.395 9.18594Z" fill="#7A40F2"/>
<path d="M204.996 13.5359C205.106 13.5359 205.204 13.5784 205.289 13.6634L206.084 14.5259C205.644 15.0709 205.101 15.4884 204.456 15.7784C203.816 16.0684 203.046 16.2134 202.146 16.2134C201.341 16.2134 200.616 16.0759 199.971 15.8009C199.331 15.5259 198.784 15.1434 198.329 14.6534C197.874 14.1634 197.524 13.5784 197.279 12.8984C197.039 12.2184 196.919 11.4759 196.919 10.6709C196.919 9.85594 197.049 9.11094 197.309 8.43594C197.569 7.75594 197.934 7.17094 198.404 6.68094C198.879 6.19094 199.444 5.81094 200.099 5.54094C200.754 5.26594 201.479 5.12844 202.274 5.12844C203.064 5.12844 203.764 5.25844 204.374 5.51844C204.989 5.77844 205.511 6.11844 205.941 6.53844L205.266 7.47594C205.226 7.53594 205.174 7.58844 205.109 7.63344C205.049 7.67844 204.964 7.70094 204.854 7.70094C204.779 7.70094 204.701 7.68094 204.621 7.64094C204.541 7.59594 204.454 7.54344 204.359 7.48344C204.264 7.41844 204.154 7.34844 204.029 7.27344C203.904 7.19844 203.759 7.13094 203.594 7.07094C203.429 7.00594 203.236 6.95344 203.016 6.91344C202.801 6.86844 202.551 6.84594 202.266 6.84594C201.781 6.84594 201.336 6.93344 200.931 7.10844C200.531 7.27844 200.186 7.52844 199.896 7.85844C199.606 8.18344 199.381 8.58344 199.221 9.05844C199.061 9.52844 198.981 10.0659 198.981 10.6709C198.981 11.2809 199.066 11.8234 199.236 12.2984C199.411 12.7734 199.646 13.1734 199.941 13.4984C200.236 13.8234 200.584 14.0734 200.984 14.2484C201.384 14.4184 201.814 14.5034 202.274 14.5034C202.549 14.5034 202.796 14.4884 203.016 14.4584C203.241 14.4284 203.446 14.3809 203.631 14.3159C203.821 14.2509 203.999 14.1684 204.164 14.0684C204.334 13.9634 204.501 13.8359 204.666 13.6859C204.716 13.6409 204.769 13.6059 204.824 13.5809C204.879 13.5509 204.936 13.5359 204.996 13.5359Z" fill="#7A40F2"/>
<circle cx="193.076" cy="5.67027" r="1.07951" stroke="#7A40F2" stroke-width="0.925294"/>
<path d="M353.006 175.368C353.206 175.368 353.364 175.426 353.479 175.541C353.599 175.651 353.659 175.798 353.659 175.983V177.093H346.219V176.478C346.219 176.353 346.244 176.223 346.294 176.088C346.349 175.948 346.434 175.823 346.549 175.713L349.841 172.413C350.116 172.133 350.361 171.866 350.576 171.611C350.796 171.356 350.979 171.103 351.124 170.853C351.269 170.603 351.379 170.351 351.454 170.096C351.534 169.836 351.574 169.563 351.574 169.278C351.574 169.018 351.536 168.791 351.461 168.596C351.386 168.396 351.279 168.228 351.139 168.093C351.004 167.958 350.839 167.858 350.644 167.793C350.454 167.723 350.239 167.688 349.999 167.688C349.779 167.688 349.574 167.721 349.384 167.786C349.199 167.846 349.034 167.933 348.889 168.048C348.744 168.158 348.621 168.288 348.521 168.438C348.421 168.588 348.346 168.753 348.296 168.933C348.211 169.163 348.101 169.316 347.966 169.391C347.831 169.466 347.636 169.483 347.381 169.443L346.406 169.271C346.481 168.751 346.626 168.296 346.841 167.906C347.056 167.511 347.324 167.183 347.644 166.923C347.969 166.658 348.339 166.461 348.754 166.331C349.174 166.196 349.624 166.128 350.104 166.128C350.604 166.128 351.061 166.203 351.476 166.353C351.891 166.498 352.246 166.706 352.541 166.976C352.836 167.246 353.066 167.571 353.231 167.951C353.396 168.331 353.479 168.753 353.479 169.218C353.479 169.618 353.419 169.988 353.299 170.328C353.184 170.668 353.026 170.993 352.826 171.303C352.631 171.613 352.401 171.913 352.136 172.203C351.871 172.493 351.594 172.788 351.304 173.088L348.859 175.586C349.094 175.516 349.326 175.463 349.556 175.428C349.791 175.388 350.014 175.368 350.224 175.368H353.006ZM357.395 170.186C357.635 170.136 357.865 170.101 358.085 170.081C358.305 170.056 358.518 170.043 358.723 170.043C359.293 170.043 359.795 170.128 360.23 170.298C360.665 170.468 361.03 170.703 361.325 171.003C361.62 171.303 361.843 171.656 361.993 172.061C362.143 172.461 362.218 172.893 362.218 173.358C362.218 173.933 362.115 174.458 361.91 174.933C361.71 175.408 361.43 175.816 361.07 176.156C360.71 176.491 360.283 176.751 359.788 176.936C359.298 177.121 358.763 177.213 358.183 177.213C357.843 177.213 357.52 177.178 357.215 177.108C356.91 177.038 356.623 176.946 356.353 176.831C356.088 176.711 355.84 176.576 355.61 176.426C355.385 176.271 355.183 176.108 355.003 175.938L355.573 175.151C355.693 174.981 355.85 174.896 356.045 174.896C356.17 174.896 356.298 174.936 356.428 175.016C356.558 175.096 356.705 175.183 356.87 175.278C357.04 175.373 357.238 175.461 357.463 175.541C357.693 175.621 357.968 175.661 358.288 175.661C358.628 175.661 358.928 175.606 359.188 175.496C359.448 175.386 359.663 175.233 359.833 175.038C360.008 174.838 360.138 174.603 360.223 174.333C360.313 174.058 360.358 173.761 360.358 173.441C360.358 172.851 360.185 172.391 359.84 172.061C359.5 171.726 358.995 171.558 358.325 171.558C357.81 171.558 357.283 171.653 356.743 171.843L355.588 171.513L356.488 166.248H361.843V167.036C361.843 167.301 361.76 167.516 361.595 167.681C361.43 167.846 361.15 167.928 360.755 167.928H357.778L357.395 170.186Z" fill="#F2946D"/>
<path d="M376.796 174.536C376.906 174.536 377.004 174.578 377.089 174.663L377.884 175.526C377.444 176.071 376.901 176.488 376.256 176.778C375.616 177.068 374.846 177.213 373.946 177.213C373.141 177.213 372.416 177.076 371.771 176.801C371.131 176.526 370.584 176.143 370.129 175.653C369.674 175.163 369.324 174.578 369.079 173.898C368.839 173.218 368.719 172.476 368.719 171.671C368.719 170.856 368.849 170.111 369.109 169.436C369.369 168.756 369.734 168.171 370.204 167.681C370.679 167.191 371.244 166.811 371.899 166.541C372.554 166.266 373.279 166.128 374.074 166.128C374.864 166.128 375.564 166.258 376.174 166.518C376.789 166.778 377.311 167.118 377.741 167.538L377.066 168.476C377.026 168.536 376.974 168.588 376.909 168.633C376.849 168.678 376.764 168.701 376.654 168.701C376.579 168.701 376.501 168.681 376.421 168.641C376.341 168.596 376.254 168.543 376.159 168.483C376.064 168.418 375.954 168.348 375.829 168.273C375.704 168.198 375.559 168.131 375.394 168.071C375.229 168.006 375.036 167.953 374.816 167.913C374.601 167.868 374.351 167.846 374.066 167.846C373.581 167.846 373.136 167.933 372.731 168.108C372.331 168.278 371.986 168.528 371.696 168.858C371.406 169.183 371.181 169.583 371.021 170.058C370.861 170.528 370.781 171.066 370.781 171.671C370.781 172.281 370.866 172.823 371.036 173.298C371.211 173.773 371.446 174.173 371.741 174.498C372.036 174.823 372.384 175.073 372.784 175.248C373.184 175.418 373.614 175.503 374.074 175.503C374.349 175.503 374.596 175.488 374.816 175.458C375.041 175.428 375.246 175.381 375.431 175.316C375.621 175.251 375.799 175.168 375.964 175.068C376.134 174.963 376.301 174.836 376.466 174.686C376.516 174.641 376.569 174.606 376.624 174.581C376.679 174.551 376.736 174.536 376.796 174.536Z" fill="#F2946D"/>
<circle cx="366.076" cy="166.67" r="1.07951" stroke="#F2946D" stroke-width="0.925294"/>
<path d="M9.42516 171.693C9.42516 172.638 9.32266 173.456 9.11766 174.146C8.91766 174.836 8.64016 175.408 8.28516 175.863C7.93016 176.318 7.51266 176.656 7.03266 176.876C6.55266 177.096 6.03516 177.206 5.48016 177.206C4.92516 177.206 4.40766 177.096 3.92766 176.876C3.44766 176.656 3.03016 176.318 2.67516 175.863C2.32516 175.408 2.05016 174.836 1.85016 174.146C1.65016 173.456 1.55016 172.638 1.55016 171.693C1.55016 170.748 1.65016 169.931 1.85016 169.241C2.05016 168.546 2.32516 167.973 2.67516 167.523C3.03016 167.068 3.44766 166.731 3.92766 166.511C4.40766 166.286 4.92516 166.173 5.48016 166.173C6.03516 166.173 6.55266 166.286 7.03266 166.511C7.51266 166.731 7.93016 167.068 8.28516 167.523C8.64016 167.973 8.91766 168.546 9.11766 169.241C9.32266 169.931 9.42516 170.748 9.42516 171.693ZM7.76016 171.693C7.76016 170.893 7.69516 170.228 7.56516 169.698C7.44016 169.163 7.27266 168.736 7.06266 168.416C6.85266 168.096 6.61016 167.868 6.33516 167.733C6.06016 167.598 5.77516 167.531 5.48016 167.531C5.18016 167.531 4.89266 167.598 4.61766 167.733C4.34766 167.868 4.10766 168.096 3.89766 168.416C3.68766 168.736 3.52016 169.163 3.39516 169.698C3.27016 170.228 3.20766 170.893 3.20766 171.693C3.20766 172.493 3.27016 173.161 3.39516 173.696C3.52016 174.226 3.68766 174.651 3.89766 174.971C4.10766 175.291 4.34766 175.518 4.61766 175.653C4.89266 175.788 5.18016 175.856 5.48016 175.856C5.77516 175.856 6.06016 175.788 6.33516 175.653C6.61016 175.518 6.85266 175.291 7.06266 174.971C7.27266 174.651 7.44016 174.226 7.56516 173.696C7.69516 173.161 7.76016 172.493 7.76016 171.693ZM12.7264 170.283C12.9864 170.228 13.2339 170.188 13.4689 170.163C13.7089 170.138 13.9389 170.126 14.1589 170.126C14.7239 170.126 15.2214 170.211 15.6514 170.381C16.0864 170.546 16.4489 170.776 16.7389 171.071C17.0339 171.366 17.2539 171.713 17.3989 172.113C17.5489 172.508 17.6239 172.938 17.6239 173.403C17.6239 173.978 17.5239 174.501 17.3239 174.971C17.1239 175.441 16.8464 175.843 16.4914 176.178C16.1364 176.508 15.7164 176.763 15.2314 176.943C14.7514 177.123 14.2314 177.213 13.6714 177.213C13.3414 177.213 13.0264 177.181 12.7264 177.116C12.4314 177.051 12.1539 176.963 11.8939 176.853C11.6339 176.738 11.3939 176.608 11.1739 176.463C10.9539 176.313 10.7564 176.158 10.5814 175.998L11.0764 175.308C11.1814 175.158 11.3214 175.083 11.4964 175.083C11.6064 175.083 11.7264 175.123 11.8564 175.203C11.9864 175.283 12.1364 175.371 12.3064 175.466C12.4814 175.556 12.6864 175.641 12.9214 175.721C13.1564 175.801 13.4364 175.841 13.7614 175.841C14.1164 175.841 14.4339 175.783 14.7139 175.668C14.9939 175.553 15.2289 175.393 15.4189 175.188C15.6139 174.978 15.7614 174.728 15.8614 174.438C15.9614 174.148 16.0114 173.831 16.0114 173.486C16.0114 173.171 15.9639 172.888 15.8689 172.638C15.7789 172.388 15.6414 172.176 15.4564 172.001C15.2764 171.826 15.0489 171.693 14.7739 171.603C14.4989 171.508 14.1814 171.461 13.8214 171.461C13.5564 171.461 13.2839 171.483 13.0039 171.528C12.7289 171.573 12.4489 171.643 12.1639 171.738L11.1589 171.453L12.0439 166.293H17.2714V166.991C17.2714 167.221 17.1989 167.408 17.0539 167.553C16.9089 167.698 16.6664 167.771 16.3264 167.771H13.1614L12.7264 170.283Z" fill="#242424"/>
<path d="M32.589 174.686C32.684 174.686 32.7665 174.723 32.8365 174.798L33.534 175.556C33.094 176.086 32.554 176.496 31.914 176.786C31.274 177.071 30.509 177.213 29.619 177.213C28.829 177.213 28.114 177.078 27.474 176.808C26.839 176.533 26.2965 176.153 25.8465 175.668C25.3965 175.178 25.049 174.596 24.804 173.921C24.564 173.246 24.444 172.503 24.444 171.693C24.444 170.883 24.5715 170.141 24.8265 169.466C25.0865 168.786 25.449 168.203 25.914 167.718C26.384 167.228 26.944 166.848 27.594 166.578C28.249 166.308 28.969 166.173 29.754 166.173C30.534 166.173 31.2215 166.301 31.8165 166.556C32.4165 166.806 32.9365 167.141 33.3765 167.561L32.799 168.378C32.759 168.433 32.7115 168.481 32.6565 168.521C32.6015 168.561 32.5265 168.581 32.4315 168.581C32.3315 168.581 32.2165 168.536 32.0865 168.446C31.9615 168.351 31.799 168.248 31.599 168.138C31.404 168.023 31.1565 167.921 30.8565 167.831C30.5615 167.736 30.1915 167.688 29.7465 167.688C29.2315 167.688 28.759 167.778 28.329 167.958C27.899 168.138 27.529 168.401 27.219 168.746C26.909 169.091 26.6665 169.511 26.4915 170.006C26.3215 170.501 26.2365 171.063 26.2365 171.693C26.2365 172.328 26.3265 172.896 26.5065 173.396C26.6865 173.891 26.934 174.311 27.249 174.656C27.564 174.996 27.934 175.256 28.359 175.436C28.784 175.616 29.2415 175.706 29.7315 175.706C30.0315 175.706 30.299 175.691 30.534 175.661C30.774 175.626 30.994 175.573 31.194 175.503C31.394 175.428 31.5815 175.336 31.7565 175.226C31.9365 175.116 32.114 174.981 32.289 174.821C32.389 174.731 32.489 174.686 32.589 174.686Z" fill="#242424"/>
<circle cx="21.0761" cy="166.67" r="1.07951" stroke="#242424" stroke-width="0.925294"/>
<defs>
<filter id="filter0_i_0_421" x="86.1523" y="69.1523" width="205.621" height="206.621" filterUnits="userSpaceOnUse" color-interpolation-filters="sRGB">
<feFlood flood-opacity="0" result="BackgroundImageFix"/>
<feBlend mode="normal" in="SourceGraphic" in2="BackgroundImageFix" result="shape"/>
<feColorMatrix in="SourceAlpha" type="matrix" values="0 0 0 0 0 0 0 0 0 0 0 0 0 0 0 0 0 0 127 0" result="hardAlpha"/>
<feOffset dy="1"/>
<feGaussianBlur stdDeviation="2.5"/>
<feComposite in2="hardAlpha" operator="arithmetic" k2="-1" k3="1"/>
<feColorMatrix type="matrix" values="0 0 0 0 0.508577 0 0 0 0 0.508577 0 0 0 0 0.508577 0 0 0 0.584271 0"/>
<feBlend mode="normal" in2="shape" result="effect1_innerShadow_0_421"/>
</filter>
<filter id="filter1_f_0_421" x="5.70194" y="0.15168" width="366.52" height="399.347" filterUnits="userSpaceOnUse" color-interpolation-filters="sRGB">
<feFlood flood-opacity="0" result="BackgroundImageFix"/>
<feBlend mode="normal" in="SourceGraphic" in2="BackgroundImageFix" result="shape"/>
<feGaussianBlur stdDeviation="44.8517" result="effect1_foregroundBlur_0_421"/>
</filter>
<filter id="filter2_f_0_421" x="58.6562" y="58.6697" width="262.795" height="270.712" filterUnits="userSpaceOnUse" color-interpolation-filters="sRGB">
<feFlood flood-opacity="0" result="BackgroundImageFix"/>
<feBlend mode="normal" in="SourceGraphic" in2="BackgroundImageFix" result="shape"/>
<feGaussianBlur stdDeviation="25.8237" result="effect1_foregroundBlur_0_421"/>
</filter>
<filter id="filter3_i_0_421" x="113.453" y="96.4535" width="152.047" height="152.047" filterUnits="userSpaceOnUse" color-interpolation-filters="sRGB">
<feFlood flood-opacity="0" result="BackgroundImageFix"/>
<feBlend mode="normal" in="SourceGraphic" in2="BackgroundImageFix" result="shape"/>
<feColorMatrix in="SourceAlpha" type="matrix" values="0 0 0 0 0 0 0 0 0 0 0 0 0 0 0 0 0 0 127 0" result="hardAlpha"/>
<feOffset/>
<feGaussianBlur stdDeviation="2"/>
<feComposite in2="hardAlpha" operator="arithmetic" k2="-1" k3="1"/>
<feColorMatrix type="matrix" values="0 0 0 0 0.714452 0 0 0 0 0.715415 0 0 0 0 0.860083 0 0 0 0.555753 0"/>
<feBlend mode="normal" in2="shape" result="effect1_innerShadow_0_421"/>
</filter>
<filter id="filter4_d_0_421" x="177.261" y="56.8483" width="24.3372" height="24.3373" filterUnits="userSpaceOnUse" color-interpolation-filters="sRGB">
<feFlood flood-opacity="0" result="BackgroundImageFix"/>
<feColorMatrix in="SourceAlpha" type="matrix" values="0 0 0 0 0 0 0 0 0 0 0 0 0 0 0 0 0 0 127 0" result="hardAlpha"/>
<feOffset dy="1"/>
<feGaussianBlur stdDeviation="3"/>
<feColorMatrix type="matrix" values="0 0 0 0 0 0 0 0 0 0 0 0 0 0 0 0 0 0 0.224323 0"/>
<feBlend mode="normal" in2="BackgroundImageFix" result="effect1_dropShadow_0_421"/>
<feBlend mode="normal" in="SourceGraphic" in2="effect1_dropShadow_0_421" result="shape"/>
</filter>
<filter id="filter5_d_0_421" x="279.254" y="158.633" width="33.8493" height="25.581" filterUnits="userSpaceOnUse" color-interpolation-filters="sRGB">
<feFlood flood-opacity="0" result="BackgroundImageFix"/>
<feColorMatrix in="SourceAlpha" type="matrix" values="0 0 0 0 0 0 0 0 0 0 0 0 0 0 0 0 0 0 127 0" result="hardAlpha"/>
<feOffset dy="1"/>
<feGaussianBlur stdDeviation="2"/>
<feColorMatrix type="matrix" values="0 0 0 0 0 0 0 0 0 0 0 0 0 0 0 0 0 0 0.224323 0"/>
<feBlend mode="normal" in2="BackgroundImageFix" result="effect1_dropShadow_0_421"/>
<feBlend mode="normal" in="SourceGraphic" in2="effect1_dropShadow_0_421" result="shape"/>
</filter>
<filter id="filter6_d_0_421" x="285.113" y="163.984" width="14.8983" height="14.8983" filterUnits="userSpaceOnUse" color-interpolation-filters="sRGB">
<feFlood flood-opacity="0" result="BackgroundImageFix"/>
<feColorMatrix in="SourceAlpha" type="matrix" values="0 0 0 0 0 0 0 0 0 0 0 0 0 0 0 0 0 0 127 0" result="hardAlpha"/>
<feOffset dy="1"/>
<feGaussianBlur stdDeviation="2"/>
<feColorMatrix type="matrix" values="0 0 0 0 0 0 0 0 0 0 0 0 0 0 0 0 0 0 0.224323 0"/>
<feBlend mode="normal" in2="BackgroundImageFix" result="effect1_dropShadow_0_421"/>
<feBlend mode="normal" in="SourceGraphic" in2="effect1_dropShadow_0_421" result="shape"/>
</filter>
<linearGradient id="paint0_linear_0_421" x1="194.515" y1="174.307" x2="292.946" y2="174.307" gradientUnits="userSpaceOnUse">
<stop stop-color="#6F5CEA"/>
<stop offset="0.695233" stop-color="#AE5BFF"/>
<stop offset="1" stop-color="#F2946D"/>
</linearGradient>
</defs>
</svg>
