<svg width="13" height="25" viewBox="0 0 13 25" fill="none" xmlns="http://www.w3.org/2000/svg">
<path d="M11.346 15.3901C11.1716 15.0707 10.7643 14.9495 10.4363 15.1191C10.1082 15.2889 9.98364 15.6854 10.158 16.0047C10.5135 16.6559 10.7015 17.3931 10.7015 18.1364C10.7015 19.3732 10.2008 20.5303 9.29171 21.3945C8.38303 22.2585 7.18145 22.7173 5.90992 22.6889C3.38974 22.631 1.3421 20.5859 1.34547 18.1301C1.34782 16.3975 2.33975 14.8388 3.93399 14.0622C4.16182 13.9512 4.30566 13.7245 4.30566 13.4765V3.64392C4.30566 2.90824 4.92053 2.3097 5.67628 2.3097H6.37051C7.12626 2.3097 7.74113 2.90824 7.74113 3.64392V13.0684C7.74113 13.43 8.04237 13.7232 8.41386 13.7232C8.78534 13.7232 9.08659 13.4301 9.08659 13.0684V12.284H10.7056C11.0771 12.284 11.3783 11.9909 11.3783 11.6291C11.3783 11.2674 11.0771 10.9743 10.7056 10.9743H9.08659V9.95486H9.72296C10.0944 9.95486 10.3957 9.6617 10.3957 9.29999C10.3957 8.93832 10.0944 8.64512 9.72296 8.64512H9.08659V7.62571H10.7056C11.0771 7.62571 11.3783 7.33255 11.3783 6.97084C11.3783 6.60913 11.0771 6.31596 10.7056 6.31596H9.08659V5.2966H9.72296C10.0944 5.2966 10.3957 5.00344 10.3957 4.64173C10.3957 4.28002 10.0944 3.98686 9.72296 3.98686H9.08659V3.64392C9.08659 2.18607 7.86821 1 6.37056 1H5.67632C4.17871 1 2.96029 2.18607 2.96029 3.64392V13.0878C1.12673 14.1396 0.00291272 16.0354 5.45843e-06 18.1285C-0.00437851 21.2904 2.63256 23.9237 5.87808 23.9983C5.92727 23.9995 5.97609 24 6.02515 24C7.60776 24 9.09683 23.4106 10.2318 22.3316C11.4023 21.2188 12.0469 19.7289 12.0469 18.1364C12.0469 17.1796 11.8045 16.2299 11.346 15.3901Z" fill="#242424" stroke="#242424" stroke-width="0.1"/>
</svg>
